<svg width="1581" height="526" viewBox="0 0 1581 526" fill="none" xmlns="http://www.w3.org/2000/svg">
<path d="M797.492 197.755V167.755H776.688V137H704.114V167.755H683.31V197.755H660.57V528.516H820.233V197.755H797.492Z" fill="white"/>
<path d="M765.921 197.755V167.755H745.116V137H672.544V167.755H651.739V197.755H629V528.516H788.661V197.755H765.921Z" fill="#C1BFCD"/>
<path d="M663.108 495.308H654.398V221.34H663.108V495.308Z" fill="#223663"/>
<path d="M696.492 495.308H687.784V221.34H696.492V495.308Z" fill="#223663"/>
<path d="M729.876 495.308H721.168V221.34H729.876V495.308Z" fill="#223663"/>
<path d="M763.26 495.308H754.552V221.34H763.26V495.308Z" fill="#223663"/>
<path d="M408.321 325.952L351 222H516.433L581.115 281.111L408.321 325.952Z" fill="#473F74"/>
<path d="M581.115 526.197H413.23V281.082H581.115V526.197Z" fill="white"/>
<path d="M415.68 526.196H351V222.001L415.68 281.112V504.517V526.196Z" fill="#C1BFCD"/>
<path d="M446.667 323.346H433.882V300.856H446.667V323.346Z" fill="#223663"/>
<path d="M475.278 323.346H462.492V300.856H475.278V323.346Z" fill="#223663"/>
<path d="M503.888 323.346H491.103V300.856H503.888V323.346Z" fill="#223663"/>
<path d="M532.497 323.346H519.712V300.856H532.497V323.346Z" fill="#223663"/>
<path d="M561.107 323.346H548.321V300.856H561.107V323.346Z" fill="#223663"/>
<path d="M446.667 365.298H433.882V342.808H446.667V365.298Z" fill="#223663"/>
<path d="M475.278 365.298H462.492V342.808H475.278V365.298Z" fill="#223663"/>
<path d="M503.888 365.298H491.103V342.808H503.888V365.298Z" fill="#223663"/>
<path d="M532.497 365.298H519.712V342.808H532.497V365.298Z" fill="#223663"/>
<path d="M561.107 365.298H548.321V342.808H561.107V365.298Z" fill="#223663"/>
<path d="M446.667 407.252H433.882V384.761H446.667V407.252Z" fill="#223663"/>
<path d="M475.278 407.252H462.492V384.761H475.278V407.252Z" fill="#223663"/>
<path d="M503.888 407.252H491.103V384.761H503.888V407.252Z" fill="#223663"/>
<path d="M532.497 407.252H519.712V384.761H532.497V407.252Z" fill="#223663"/>
<path d="M561.107 407.252H548.321V384.761H561.107V407.252Z" fill="#223663"/>
<path d="M446.667 449.205H433.882V426.714H446.667V449.205Z" fill="#223663"/>
<path d="M475.278 449.205H462.492V426.714H475.278V449.205Z" fill="#223663"/>
<path d="M503.888 449.205H491.103V426.714H503.888V449.205Z" fill="#223663"/>
<path d="M532.497 449.205H519.712V426.714H532.497V449.205Z" fill="#223663"/>
<path d="M561.107 449.205H548.321V426.714H561.107V449.205Z" fill="#223663"/>
<path d="M54.2539 316.555L106.09 365.425H314.077L262.241 316.555H54.2539Z" fill="#473F74"/>
<path d="M100.598 271L133.942 302.435H267.731L234.387 271H100.598Z" fill="#473F74"/>
<path d="M133.942 302.435V347.991L100.598 316.555H89.2236V281.723L100.598 271L133.942 302.435Z" fill="#C1BFCD"/>
<path d="M267.732 347.991H133.942V302.435H267.732V347.991Z" fill="white"/>
<path d="M106.089 526.037H314.076V365.425H106.089V526.037Z" fill="white"/>
<path d="M54.2533 316.555L0 364.026V526.038H106.089V365.425L54.2533 316.555Z" fill="#C1BFCD"/>
<path d="M36.4154 415.764H14.4941V383.835H36.4154V415.764Z" fill="#223663"/>
<path d="M79.9536 415.764H58.0322V383.835H79.9536V415.764Z" fill="#223663"/>
<path d="M36.4154 465.45H14.4941V433.521H36.4154V465.45Z" fill="#223663"/>
<path d="M79.9536 465.45H58.0322V433.521H79.9536V465.45Z" fill="#223663"/>
<path d="M108.322 287.884V315.18L119.965 326.157V298.861L108.322 287.884Z" fill="#223663"/>
<path d="M68.9927 526.038H21.9033V501.947C21.9033 490.569 32.4447 481.345 45.4473 481.345C58.4513 481.345 68.9927 490.569 68.9927 501.947V526.038Z" fill="#223663"/>
<path d="M1017.01 368.223L960.623 273H1074.14L1137.76 327.148L1017.01 368.223Z" fill="#473F74"/>
<path d="M1137.76 525.984H1021.84V327.121H1137.76V525.984Z" fill="white"/>
<path d="M1024.25 525.985H960.623H897V393.946V327.147L960.623 273L1024.25 327.147V393.946V525.985Z" fill="#C1BFCD"/>
<path d="M947.9 369.278H925.043V343.051C925.043 337.528 930.159 333.05 936.472 333.05C942.783 333.05 947.9 337.528 947.9 343.051V369.278Z" fill="#223663"/>
<path d="M996.204 369.278H973.346V343.051C973.346 337.528 978.463 333.05 984.775 333.05C991.087 333.05 996.204 337.528 996.204 343.051V369.278Z" fill="#223663"/>
<path d="M947.9 423.999H925.043V397.772C925.043 392.248 930.159 387.772 936.472 387.772C942.783 387.772 947.9 392.248 947.9 397.772V423.999Z" fill="#223663"/>
<path d="M996.204 423.999H973.346V397.772C973.346 392.248 978.463 387.772 984.775 387.772C991.087 387.772 996.204 392.248 996.204 397.772V423.999Z" fill="#223663"/>
<path d="M947.9 478.721H925.043V452.494C925.043 446.97 930.159 442.492 936.472 442.492C942.783 442.492 947.9 446.97 947.9 452.494V478.721Z" fill="#223663"/>
<path d="M996.204 478.721H973.346V452.494C973.346 446.97 978.463 442.492 984.775 442.492C991.087 442.492 996.204 446.97 996.204 452.494V478.721Z" fill="#223663"/>
<path d="M1145.09 480.182L1092.58 384.959H1198.3L1257.55 439.107L1145.09 480.182Z" fill="#473F74"/>
<path d="M1257.55 525.764H1149.59V439.079H1257.55V525.764Z" fill="white"/>
<path d="M1151.83 525.764H1092.58V384.96L1151.83 439.107V505.905V525.764Z" fill="#C1BFCD"/>
<path d="M1207.31 472.11C1197.94 472.11 1190.35 478.756 1190.35 486.955V525.763H1224.28V486.955C1224.28 478.756 1216.68 472.11 1207.31 472.11Z" fill="#223663"/>
<path d="M882.866 446.132C882.866 446.132 892.987 434.652 891.114 421.859C889.239 409.066 877.617 406.113 868.995 406.113C868.995 406.113 870.67 376.593 848.465 372C826.258 376.593 827.934 406.113 827.934 406.113C819.311 406.113 807.69 409.066 805.815 421.859C803.941 434.652 814.062 446.132 814.062 446.132C814.062 446.132 796.818 454.005 803.566 472.702C810.314 491.4 848.465 497.96 848.465 497.96C848.465 497.96 886.615 491.4 893.363 472.702C900.111 454.005 882.866 446.132 882.866 446.132Z" fill="#A297DA"/>
<path d="M880.061 458.119L852.968 482.502L851.216 450.503L871.13 419.995L850.936 445.399L848.464 400.248L845.992 445.399L825.797 419.995L845.713 450.503L843.961 482.502L816.866 458.119L843.649 488.189L841.58 526H848.464H855.349L853.278 488.189L880.061 458.119Z" fill="#4D1A1A"/>
<path d="M602.037 427C591.617 429.939 570.489 470.478 575.86 489.867C581.232 509.256 602.037 510.726 602.037 510.726C602.037 510.726 622.841 509.256 628.213 489.867C633.584 470.478 612.456 429.939 602.037 427Z" fill="#A297DA"/>
<path d="M622.904 477.84L605.011 493.942L603.855 472.809L617.005 452.663L603.669 469.44L602.039 439.622L600.405 469.44L587.069 452.663L600.22 472.809L599.064 493.942L581.172 477.84L598.859 497.698L597.491 522.667H602.039H606.584L605.216 497.698L622.904 477.84Z" fill="#4D1A1A"/>
<path d="M268.036 430C257.618 432.939 236.488 473.478 241.86 492.867C247.232 512.256 268.036 513.726 268.036 513.726C268.036 513.726 288.84 512.256 294.212 492.867C299.584 473.478 278.456 432.939 268.036 430Z" fill="#A297DA"/>
<path d="M288.903 480.84L271.011 496.942L269.854 475.809L283.006 455.663L269.67 472.44L268.038 442.622L266.404 472.44L253.068 455.663L266.22 475.809L265.063 496.942L247.171 480.84L264.858 500.698L263.491 525.667H268.038H272.583L271.216 500.698L288.903 480.84Z" fill="#4D1A1A"/>
<path d="M1064.01 423C1052.83 426.152 1030.16 469.66 1035.92 490.467C1041.69 511.275 1064.01 512.852 1064.01 512.852C1064.01 512.852 1086.34 511.275 1092.1 490.467C1097.87 469.66 1075.2 426.152 1064.01 423Z" fill="#A297DA"/>
<path d="M1086.41 477.56L1067.21 494.842L1065.96 472.162L1080.08 450.541L1065.77 468.545L1064.01 436.547L1062.26 468.545L1047.95 450.541L1062.06 472.162L1060.82 494.842L1041.62 477.56L1060.6 498.87L1059.13 525.666H1064.01H1068.89L1067.43 498.87L1086.41 477.56Z" fill="#4D1A1A"/>
<path d="M1533.1 341.993L1487.59 384.895H1305L1350.51 341.993H1533.1Z" fill="#473F74"/>
<path d="M1492.41 302L1463.14 329.597H1345.69L1374.96 302H1492.41Z" fill="#473F74"/>
<path d="M1463.14 329.598V369.59L1492.41 341.993H1502.4V311.414L1492.41 302L1463.14 329.598Z" fill="white"/>
<path d="M1345.69 369.591H1463.14V329.599H1345.69V369.591Z" fill="#C1BFCD"/>
<path d="M1487.59 525.898H1305V384.895H1487.59V525.898Z" fill="#C1BFCD"/>
<path d="M1533.1 341.993L1580.73 383.67V525.898H1487.59V384.895L1533.1 341.993Z" fill="white"/>
<path d="M1548.76 429.089H1568V401.058H1548.76V429.089Z" fill="#223663"/>
<path d="M1510.54 429.089H1529.78V401.058H1510.54V429.089Z" fill="#223663"/>
<path d="M1548.76 472.707H1568V444.677H1548.76V472.707Z" fill="#223663"/>
<path d="M1510.54 472.707H1529.78V444.677H1510.54V472.707Z" fill="#223663"/>
<path d="M1485.63 316.823V340.786L1475.41 350.423V326.46L1485.63 316.823Z" fill="#223663"/>
<path d="M1520.16 525.898H1561.5V504.748C1561.5 494.759 1552.24 486.662 1540.83 486.662C1529.41 486.662 1520.16 494.759 1520.16 504.748V525.898Z" fill="#223663"/>
<path d="M1412.44 418C1400.71 421.307 1376.92 466.952 1382.97 488.783C1389.02 510.612 1412.44 512.267 1412.44 512.267C1412.44 512.267 1435.86 510.612 1441.91 488.783C1447.96 466.952 1424.17 421.307 1412.44 418Z" fill="#A297DA"/>
<path d="M1435.93 475.241L1415.79 493.371L1414.49 469.578L1429.29 446.894L1414.28 465.784L1412.44 432.212L1410.6 465.784L1395.59 446.894L1410.4 469.578L1409.09 493.371L1388.95 475.241L1408.86 497.599L1407.32 525.712H1412.44H1417.56L1416.02 497.599L1435.93 475.241Z" fill="#4D1A1A"/>
<path d="M1258.5 175.916C1217.09 175.916 1183.52 142.349 1183.52 100.942C1183.52 59.5344 1217.09 25.968 1258.5 25.968C1299.91 25.968 1333.48 59.5344 1333.48 100.942C1333.48 142.349 1299.91 175.916 1258.5 175.916V175.916ZM1258.5 -5.06727e-07C1197.48 -5.06727e-07 1148 49.4756 1148 110.504C1148 171.531 1258.5 281.202 1258.5 281.202C1258.5 281.202 1369 171.531 1369 110.504C1369 49.4756 1319.53 -5.06727e-07 1258.5 -5.06727e-07Z" fill="#7C70BB"/>
<path d="M913.5 111.47C888.956 111.47 869.059 91.5383 869.059 66.9467C869.059 42.3551 888.956 22.4193 913.5 22.4193C938.044 22.4193 957.941 42.3551 957.941 66.9467C957.941 91.5383 938.044 111.47 913.5 111.47V111.47ZM913.5 6.99997C877.325 6.99997 848 36.3824 848 72.624C848 108.866 913.5 174 913.5 174C913.5 174 979 108.866 979 72.624C979 36.3824 949.674 6.99997 913.5 6.99997Z" fill="#A55AAB"/>
</svg>
