<svg width="512" height="416" viewBox="0 0 512 416" fill="none" xmlns="http://www.w3.org/2000/svg">
<path d="M446 149.13C446 89.377 388.876 46.838 332.27 62.95C314.141 25.609 276.167 0 232 0C172.34 0 123.48 47.18 120.79 106.19C65.5269 118.79 30.5059 173.736 42.1639 228.925C42.9689 232.734 47.5809 234.231 50.4509 231.602C68.7569 214.833 93.3299 206.055 118.774 208.012C120.495 208.144 122.169 207.361 123.164 205.951C129.652 196.762 137.563 188.554 146.581 181.77C210.24 133.883 302.586 169.145 318.159 246.956C318.481 248.567 319.596 249.917 321.118 250.537C346.847 261.007 367.779 281.877 378.069 308.405C378.812 310.322 380.661 311.58 382.717 311.58H429.106C474.019 311.58 511.276 275.829 511.99 230.922C512.638 190.156 483.694 156.549 446 149.13V149.13Z" fill="#B5A9F2"/>
<path d="M287.976 275.208C291.966 230.252 256.528 192 211.8 192C177.285 192 148.113 214.834 138.597 246.2C95.097 223.909 44.273 261.746 54.129 310.243C21.867 310.243 0 335.327 0 363.121C0 392.349 23.73 416 52.95 416H282.4C321.372 416 353 384.453 353 345.495C353 308.43 324.36 278.047 287.976 275.208V275.208Z" fill="#7D68E8"/>
</svg>
