<svg width="732" height="371" viewBox="0 0 732 371" fill="none" xmlns="http://www.w3.org/2000/svg">
<path d="M176.5 92.5004C172.5 99.7933 154.285 147.823 146.447 132.5C141.912 123.635 150.982 115.866 146.447 107C142.267 98.8281 136.669 95.3619 127.947 92.5004C119.969 89.8831 113.527 97.0139 106.447 92.5004C99.2251 87.8963 104.958 76.6174 97.4472 72.5004C91.4543 69.2154 86.655 71.1926 79.9472 72.5004C70.2615 74.3887 75.3538 77.9388 70.4472 86.5005C65.981 94.2935 65.4105 95.3452 57.4472 99.5C53.2924 101.668 46.9472 100 45.4472 107C43.9472 114 45.9472 126 48.4472 132.5C50.9472 139 69.8565 152.335 57.4472 162.5C51.3262 167.514 44.9231 164.267 37.9472 168C30.6271 171.918 27.0255 175.432 21.9472 182C13.8248 192.506 16.6059 202.236 10.4472 214C8.13297 218.421 5.34584 220.211 3.94715 225C1.09323 234.773 5.11814 241.541 10.3008 250.254L10.4472 250.5C13.9117 256.326 17.2577 258.606 21.9472 263.5C31.5168 273.488 34.6337 287.716 48.4472 287C58.9428 286.457 60.0215 272.828 70.4472 271.5C79.0945 270.4 83.3331 276.164 91.9472 277.5C103.139 279.236 109.622 277.5 120.947 277.5C136.178 277.5 145.009 280.471 159.947 277.5C167.762 275.947 171.487 271.165 179.447 271.5C189.569 271.927 193.826 278.179 202.447 283.5C210.193 288.281 213.262 293.02 221.447 297C229.335 300.837 234.86 300.104 242.947 303.5C267.945 313.998 274.592 331.59 294.947 349.5C302.946 356.538 304.816 368.191 315.447 367.5C325.367 366.856 324.068 352.796 333.447 349.5C340.632 346.976 345.665 351.728 352.947 349.5C363.523 346.266 368.095 339.885 373.947 330.5C381.627 318.185 366.858 297.484 380.947 294C387.305 292.428 390.936 296.297 397.447 297C407.154 298.05 412.684 297 422.447 297C431.82 297 437.97 300.998 446.447 297C455.246 292.852 453.384 282.116 461.947 277.5C472.261 271.942 480.365 279.267 491.947 277.5C500.751 276.158 505.557 274.486 513.947 271.5C520.542 269.154 524.6 268.348 530.447 264.5C539.117 258.795 541.842 252.893 547.947 244.5C553.719 236.566 555.349 231.058 560.947 223C566.341 215.237 571.383 212.279 575.947 204C580.449 195.834 579.921 189.912 583.947 181.5C589.536 169.826 600.629 166.815 602.447 154C603.611 145.798 606.375 137.542 599.447 133C594.385 129.682 589.995 132.738 583.947 133C574.921 133.393 569.39 132.284 560.947 135.5C550.317 139.55 549.551 151.529 538.447 154C533.11 155.188 529.825 154.984 524.447 154C512.032 151.729 510.011 139.208 497.947 135.5C486.375 131.944 473.322 145.793 466.947 135.5C464.326 131.268 464.447 123 464.447 123C464.447 123 475.163 91.9293 461.947 86.5004C456.348 84.2004 451.447 86.5004 446.447 86.5004C446.447 86.5004 431.447 110 425.947 110C420.447 110 425.947 92.5004 425.947 92.5004L408.447 80.0004C404.947 77.5004 401.947 86.5004 401.947 86.5004C401.947 86.5004 388.947 84.0004 386.447 80.0004C383.947 76.0004 373.947 63.0004 373.947 63.0004L355.947 35.5004C355.947 35.5004 341.947 13.0004 336.947 10.5004C331.947 8.00041 304.5 1.00014 289.5 4.00011C274.5 7.00008 262.197 22.2698 242.947 29.5003C211 41.5003 218.426 55.4789 202.447 69.0005C189.582 79.8875 180.007 86.1058 176.5 92.5004Z" stroke="#7D68E8" stroke-width="6"/>
<path d="M661.447 125C651.948 121.197 643.947 105.5 643.947 105.5C643.947 105.5 616.636 104.08 618.947 93.5005C620.274 87.429 628.207 88.2974 630.447 82.5005C632.348 77.5828 626.839 72.844 630.447 69.0005C634.956 64.1983 646.947 72.5005 646.947 72.5005C646.947 72.5005 655.68 69.8206 661.447 69.0005C669.953 67.791 674.856 69.0005 683.447 69.0005C693.015 69.0005 699.265 64.9813 707.947 69.0005C716.232 72.8355 720.039 78.031 723.447 86.5005C727.238 95.9201 732.169 107.301 723.447 112.5C718.248 115.6 713.914 111.483 707.947 112.5C697.359 114.306 693.955 122.77 683.447 125C675.043 126.784 669.423 128.194 661.447 125Z" stroke="#7D68E8" stroke-width="6"/>
<path d="M535.457 78.2071C535.457 78.2071 504.357 58.6496 493.457 71.2071C489.558 75.6992 485.495 79.5919 487.457 85.2071C489.017 89.6692 492.8 90.4578 496.957 92.7071C504.3 96.6798 510.828 92.3633 517.957 96.7071C526.099 101.668 523.663 112.006 531.957 116.707C541.47 122.099 549.126 118.208 559.957 116.707C572.5 114.969 585.699 118.725 590.957 107.207C593.877 100.813 594.959 94.9867 590.957 89.2071C585.987 82.0274 577.689 85.0949 568.957 85.2071C560.801 85.3119 548.457 89.2071 548.457 89.2071L535.457 78.2071Z" stroke="#7D68E8" stroke-width="6"/>
</svg>
