<svg width="732" height="366" viewBox="0 0 732 366" fill="none" xmlns="http://www.w3.org/2000/svg">
<path d="M164.947 87.5001C154.839 101.43 154.285 142.823 146.447 127.5C141.912 118.634 150.982 110.866 146.447 102C142.267 93.8278 136.669 90.3615 127.947 87.5001C119.969 84.8828 113.527 92.0136 106.447 87.5001C99.2251 82.8959 104.958 71.617 97.4472 67.5001C91.4543 64.215 86.655 66.1923 79.9472 67.5001C70.2615 69.3884 62.3538 70.4384 57.4472 79.0001C52.981 86.7931 65.4105 97.8453 57.4472 102C53.2924 104.168 46.9472 95.0002 45.4472 102C43.9472 109 52.4472 110 54.9472 116.5C57.4472 123 69.8565 147.335 57.4472 157.5C51.3262 162.514 44.9231 159.266 37.9472 163C30.6271 166.918 27.0255 170.432 21.9472 177C13.8248 187.506 16.6059 197.235 10.4472 209C8.13297 213.421 5.34584 215.21 3.94715 220C1.09323 229.773 5.11814 236.54 10.3008 245.254L10.4472 245.5C13.9117 251.326 17.2577 253.606 21.9472 258.5C31.5168 268.487 34.6337 282.716 48.4472 282C58.9428 281.456 60.0215 267.827 70.4472 266.5C79.0945 265.399 83.3331 271.164 91.9472 272.5C103.139 274.236 109.622 272.5 120.947 272.5C136.178 272.5 145.009 275.471 159.947 272.5C167.762 270.946 171.487 266.164 179.447 266.5C189.569 266.927 193.826 273.179 202.447 278.5C210.193 283.281 213.262 288.019 221.447 292C229.335 295.836 234.86 295.104 242.947 298.5C267.945 308.998 274.592 326.59 294.947 344.5C302.946 351.538 304.816 363.19 315.447 362.5C325.367 361.856 324.068 347.795 333.447 344.5C340.632 341.976 345.665 346.727 352.947 344.5C363.523 341.266 368.095 334.884 373.947 325.5C381.627 313.185 366.858 292.484 380.947 289C387.305 287.428 390.936 291.296 397.447 292C407.154 293.049 412.684 292 422.447 292C431.82 292 437.97 295.997 446.447 292C455.246 287.851 453.384 277.115 461.947 272.5C472.261 266.942 480.365 274.267 491.947 272.5C500.751 271.157 505.557 269.485 513.947 266.5C520.542 264.154 524.6 263.348 530.447 259.5C539.117 253.795 541.842 247.893 547.947 239.5C553.719 231.565 555.349 226.058 560.947 218C566.341 210.236 571.383 207.279 575.947 199C580.449 190.833 579.921 184.912 583.947 176.5C589.536 164.825 600.629 161.815 602.447 149C603.611 140.798 606.375 132.542 599.447 128C594.385 124.681 589.995 127.737 583.947 128C574.921 128.392 569.39 127.283 560.947 130.5C550.317 134.55 549.551 146.528 538.447 149C533.11 150.188 529.825 149.984 524.447 149C512.032 146.728 510.011 134.208 497.947 130.5C486.375 126.944 473.322 140.792 466.947 130.5C464.326 126.268 464.447 118 464.447 118C464.447 118 475.163 86.929 461.947 81.5001C456.348 79.2001 451.447 81.5001 446.447 81.5001C446.447 81.5001 431.447 105 425.947 105C420.447 105 425.947 87.5001 425.947 87.5001L408.447 75.0001C404.947 72.5001 401.947 81.5001 401.947 81.5001C401.947 81.5001 388.947 79.0001 386.447 75.0001C383.947 71.0001 373.947 58.0001 373.947 58.0001L355.947 30.5001C355.947 30.5001 341.947 8.00008 336.947 5.50008C331.947 3.00008 302.947 2.50011 287.947 5.50008C272.947 8.50006 257.305 15.8049 239.447 26.0001C221.269 36.3784 212.426 44.4785 196.447 58.0001C183.582 68.8871 174.846 73.8593 164.947 87.5001Z" stroke="#7D68E8" stroke-width="6"/>
<path d="M661.447 120C651.948 116.197 643.947 100.5 643.947 100.5C643.947 100.5 616.636 99.0801 618.947 88.5002C620.274 82.4287 628.207 83.2971 630.447 77.5002C632.348 72.5825 626.839 67.8437 630.447 64.0002C634.956 59.198 646.947 67.5002 646.947 67.5002C646.947 67.5002 655.68 64.8202 661.447 64.0002C669.953 62.7906 674.856 64.0002 683.447 64.0002C693.015 64.0002 699.265 59.981 707.947 64.0002C716.232 67.8351 720.039 73.0307 723.447 81.5002C727.238 90.9198 732.169 102.301 723.447 107.5C718.248 110.6 713.914 106.483 707.947 107.5C697.359 109.306 693.955 117.77 683.447 120C675.043 121.784 669.423 123.194 661.447 120Z" stroke="#7D68E8" stroke-width="6"/>
<path d="M535.457 73.2068C535.457 73.2068 504.357 53.6493 493.457 66.2068C489.558 70.6989 485.495 74.5916 487.457 80.2068C489.017 84.6689 492.8 85.4575 496.957 87.7068C504.3 91.6795 510.828 87.363 517.957 91.7068C526.099 96.6674 523.663 107.006 531.957 111.707C541.47 117.099 549.126 113.208 559.957 111.707C572.5 109.969 585.699 113.725 590.957 102.207C593.877 95.8122 594.959 89.9863 590.957 84.2068C585.987 77.0271 577.689 80.0946 568.957 80.2068C560.801 80.3116 548.457 84.2068 548.457 84.2068L535.457 73.2068Z" stroke="#7D68E8" stroke-width="6"/>
</svg>
