<svg width="512" height="425" viewBox="0 0 512 425" fill="none" xmlns="http://www.w3.org/2000/svg">
<path d="M439.632 162.143C440.922 98.9986 379.491 50.1171 316.503 68.8655C297.432 28.4963 256.551 0 208.095 0C143.541 0 90.7437 51.3397 88.4083 115.335C37.4768 126.421 0.5 171.678 0.5 224.561C0.5 286.201 50.6421 336.343 112.282 336.343H423.673C472.099 336.343 511.502 296.94 511.502 248.515C511.502 205.539 480.473 169.669 439.632 162.143V162.143Z" fill="#7D68E8"/>
<path d="M256 360.296C247.181 360.296 240.031 367.446 240.031 376.265V408.203C240.031 417.022 247.181 424.172 256 424.172C264.819 424.172 271.969 417.022 271.969 408.203V376.265C271.969 367.446 264.819 360.296 256 360.296Z" fill="#B5A9F2"/>
<path d="M383.751 360.296C374.932 360.296 367.782 367.446 367.782 376.265V408.203C367.782 417.022 374.932 424.172 383.751 424.172C392.569 424.172 399.719 417.022 399.719 408.203V376.265C399.719 367.446 392.569 360.296 383.751 360.296Z" fill="#B5A9F2"/>
<path d="M128.25 360.296C119.431 360.296 112.281 367.446 112.281 376.265V408.203C112.281 417.022 119.431 424.172 128.25 424.172C137.068 424.172 144.218 417.022 144.218 408.203V376.265C144.218 367.446 137.068 360.296 128.25 360.296Z" fill="#B5A9F2"/>
</svg>
