<svg width="512" height="512" viewBox="0 0 512 512" fill="none" xmlns="http://www.w3.org/2000/svg">
<path d="M256 400C335.529 400 400 335.529 400 256C400 176.471 335.529 112 256 112C176.471 112 112 176.471 112 256C112 335.529 176.471 400 256 400Z" fill="#E5C606"/>
<path d="M256 80C247.163 80 240 72.836 240 64V16C240 7.164 247.163 0 256 0C264.837 0 272 7.164 272 16V64C272 72.836 264.837 80 256 80Z" fill="#E5C606"/>
<path d="M256 512C247.163 512 240 504.836 240 496V448C240 439.164 247.163 432 256 432C264.837 432 272 439.164 272 448V496C272 504.836 264.837 512 256 512Z" fill="#E5C606"/>
<path d="M496 272H448C439.163 272 432 264.836 432 256C432 247.164 439.163 240 448 240H496C504.837 240 512 247.164 512 256C512 264.836 504.837 272 496 272Z" fill="#E5C606"/>
<path d="M64 272H16C7.163 272 0 264.836 0 256C0 247.164 7.163 240 16 240H64C72.837 240 80 247.164 80 256C80 264.836 72.837 272 64 272Z" fill="#E5C606"/>
<path d="M391.765 136.235C377.639 136.235 370.343 119.029 380.452 108.921L414.393 74.9801C420.642 68.7321 430.773 68.7311 437.02 74.9801C443.269 81.2281 443.269 91.3591 437.02 97.6071L403.079 131.548C399.954 134.673 395.859 136.235 391.765 136.235V136.235Z" fill="#E5C606"/>
<path d="M86.2939 441.706C72.1679 441.706 64.8719 424.5 74.9809 414.392L108.922 380.451C115.172 374.203 125.303 374.203 131.549 380.451C137.798 386.699 137.798 396.83 131.549 403.078L97.6069 437.02C94.4829 440.143 90.3889 441.706 86.2939 441.706Z" fill="#E5C606"/>
<path d="M425.706 441.706C421.611 441.706 417.517 440.144 414.393 437.02L380.452 403.079C374.203 396.83 374.203 386.7 380.452 380.452C386.7 374.203 396.831 374.203 403.079 380.452L437.02 414.393C447.128 424.499 439.832 441.706 425.706 441.706V441.706Z" fill="#E5C606"/>
<path d="M120.235 136.235C116.14 136.235 112.046 134.673 108.922 131.549L74.9802 97.6079C68.7312 91.3589 68.7312 81.2289 74.9802 74.9809C81.2282 68.7319 91.3592 68.7319 97.6072 74.9809L131.548 108.922C141.657 119.029 134.361 136.235 120.235 136.235Z" fill="#E5C606"/>
</svg>
